<?xml version="1.0" encoding="UTF-8" standalone="no"?>
<!-- Created with Inkscape (http://www.inkscape.org/) -->

<svg
   xmlns:dc="http://purl.org/dc/elements/1.1/"
   xmlns:cc="http://creativecommons.org/ns#"
   xmlns:rdf="http://www.w3.org/1999/02/22-rdf-syntax-ns#"
   xmlns:svg="http://www.w3.org/2000/svg"
   xmlns="http://www.w3.org/2000/svg"
   xmlns:sodipodi="http://sodipodi.sourceforge.net/DTD/sodipodi-0.dtd"
   xmlns:inkscape="http://www.inkscape.org/namespaces/inkscape"
   width="143.48033mm"
   height="114.84184mm"
   viewBox="0 0 508.39487 406.91988"
   id="svg4226"
   version="1.1"
   inkscape:version="0.91 r13725"
   sodipodi:docname="AUTHOR.SVG.svg">
  <defs
     id="defs4228" />
  <sodipodi:namedview
     id="base"
     pagecolor="#ffffff"
     bordercolor="#666666"
     borderopacity="1.0"
     inkscape:pageopacity="0.0"
     inkscape:pageshadow="2"
     inkscape:zoom="0.76"
     inkscape:cx="338.57146"
     inkscape:cy="299.67577"
     inkscape:document-units="px"
     inkscape:current-layer="layer1"
     showgrid="false"
     fit-margin-top="0"
     fit-margin-left="0"
     fit-margin-right="0"
     fit-margin-bottom="0"
     inkscape:window-width="1299"
     inkscape:window-height="704"
     inkscape:window-x="67"
     inkscape:window-y="27"
     inkscape:window-maximized="1" />
  <metadata
     id="metadata4231">
    <rdf:RDF>
      <cc:Work
         rdf:about="">
        <dc:format>image/svg+xml</dc:format>
        <dc:type
           rdf:resource="http://purl.org/dc/dcmitype/StillImage" />
        <dc:title></dc:title>
      </cc:Work>
    </rdf:RDF>
  </metadata>
  <g
     inkscape:label="Layer 1"
     inkscape:groupmode="layer"
     id="layer1"
     transform="translate(13.736013,-437.05263)">
    <path
       d="m 239.52618,568.60028 c -2.90718,3.41333 -6.05603,6.75225 -9.39062,10.1214 -4.86403,4.91387 -10.00879,9.55634 -15.35152,13.95579 -6.20671,4.53811 -12.71975,8.66826 -19.33921,12.52624 -8.69122,5.06373 -17.42871,10.2084 -26.41655,14.44712 -6.11476,2.2954 -12.37427,4.19751 -18.76248,5.59772 -2.72317,0.59623 -5.43257,1.01466 -8.13367,1.34798 -0.12462,-0.22377 -0.32908,-0.40868 -0.62092,-0.50392 -2.00522,-0.65095 -4.19538,-0.84068 -6.15802,-1.56654 -2.15058,-0.79474 -4.33657,-2.87856 -3.78847,-5.1712 15.16682,-18.04767 14.10767,-49.68225 0.43483,-68.30679 -0.4351,-0.59366 -1.36224,-0.12367 -1.26403,0.55908 1.46655,10.20978 5.94306,19.6836 6.90667,30.05622 0.26635,2.84139 0.32391,5.69389 0.17368,8.52339 -1.297,4.49279 -2.43993,9.00301 -4.67427,13.29886 -2.6045,5.01207 -6.10337,9.19776 -9.58514,13.4677 -8.99071,5.60381 -16.49936,13.76731 -28.760677,7.92002 -6.469659,-3.08716 -7.435411,-8.21729 -6.282266,-13.94652 6.110736,-5.53651 8.187046,-12.99245 7.682316,-20.88915 0.23721,-0.82488 0.43647,-1.6242 0.56279,-2.38086 0.13765,-0.8205 -0.37335,-1.42259 -1.03301,-1.72003 -2.18426,-12.9726 -10.481014,-26.42421 -18.700351,-34.0283 -11.264027,-10.42113 -22.872836,-13.96534 -37.556437,-16.15847 -3.877996,-0.57915 -6.613768,-1.97253 -7.998794,-4.36774 12.246592,-15.56546 41.513453,-6.20474 53.713536,5.32731 12.898966,12.19377 16.638913,29.16628 21.958883,45.37346 0.13868,0.41945 0.71986,0.1763 0.69173,-0.2061 -1.55745,-22.50638 -10.719627,-46.4476 -31.925687,-57.07926 -10.205493,-5.11818 -23.087031,-7.43391 -34.251384,-4.27319 -4.130444,1.17025 -8.550082,3.35954 -11.201424,6.62831 0.0027,-0.63411 0.03773,-1.28822 0.14534,-1.99882 0.297467,-1.96351 0.772787,-3.92242 1.395043,-5.83347 5.442864,-6.63792 15.697841,-9.62243 23.777922,-9.43611 10.472683,0.24433 19.307578,5.38356 27.429845,11.51003 0.348849,0.26428 0.837146,-0.22049 0.540095,-0.55981 -8.242516,-9.41975 -20.619729,-14.62945 -33.188811,-12.94963 -4.821622,0.6432 -11.803327,2.77411 -16.562489,6.49552 0.107718,-0.22705 0.201559,-0.46421 0.313297,-0.68806 1.163153,-2.32632 2.550208,-4.41277 4.087794,-6.33827 11.76204,-9.30068 26.440368,-9.20778 41.174165,-3.6368 7.598773,2.87252 15.371937,6.22778 20.800874,12.50603 4.61161,5.33697 7.57991,12.17617 10.90926,18.33839 0.0995,0.18349 0.42331,0.12113 0.37173,-0.11081 -1.83161,-8.20236 -4.42972,-16.20222 -10.54002,-22.26967 -0.65154,-0.64844 -1.355827,-1.24728 -2.063317,-1.84226 -6.36693,-9.32592 -17.07942,-15.2217 -27.916858,-17.88341 -3.424905,-0.84307 -11.320562,-2.64359 -16.572229,-1.33215 18.298645,-18.55831 40.581157,6.16606 53.548144,20.04153 7.12979,7.62851 15.12566,15.30679 23.88204,21.6927 6.17344,6.15085 12.84472,11.80539 19.97557,16.8127 8.61692,6.04878 20.52122,14.85636 31.24082,15.80418 0.72771,0.0635 1.20992,-0.36542 1.38309,-0.91414 1.15136,0.30168 2.30224,0.60542 3.4932,0.82524 0.49258,0.0893 0.9067,-0.0462 1.25083,-0.28489 0.8264,0.61571 1.99466,0.66684 2.71881,-0.46896 6.09427,-9.54359 4.43049,-21.13507 3.19615,-31.89133 -1.27093,-11.06264 -3.50622,-21.99848 -6.62252,-32.68277 -4.73736,-16.23925 -11.70256,-37.9268 -24.46703,-51.4505 27.12215,0.54259 52.04531,9.129 69.73491,31.12156 14.39083,17.89063 18.47731,37.96144 20.41775,59.64696 -0.28539,1.71425 -0.69169,3.34546 -1.12677,4.95393 -4.28446,8.69641 -8.34141,16.75816 -13.6552,24.2716 z M 86.800963,630.16511 c -0.765859,-0.33356 -4.428461,-2.86774 -7.47242,-5.73735 3.063449,1.71923 6.257372,3.212 9.54889,4.36319 2.035571,1.29037 4.13061,2.48244 6.33771,3.47806 -2.91797,-0.32198 -5.786014,-0.9578 -8.41418,-2.1039 z m -7.141891,-18.02318 c -0.49253,-0.56343 -1.211179,-0.92269 -2.186983,-0.73666 -26.093904,4.92053 -56.89476,7.44271 -78.4841181,-11.33247 -7.83447,-6.81367 -10.7383209,-14.76988 -6.133072,-24.34508 3.116765,-6.47884 7.36027696,-12.63891 11.6825523,-18.36823 4.018299,-5.32781 7.9876768,-9.93141 12.6843808,-13.34422 1.50124,-0.39634 2.867256,-1.29611 4.094002,-2.55359 2.528642,-1.30823 5.268552,-2.32225 8.3623,-2.90585 0.761988,0.48848 1.623793,0.89242 2.678214,1.12795 3.62522,0.80928 7.541446,-0.15867 11.260149,0.28728 5.060993,0.60622 9.935588,2.03536 14.553468,4.19548 8.763558,4.09381 16.394962,10.61737 22.427712,18.11504 8.818657,10.95584 12.495596,23.28263 9.355345,34.95774 -0.411407,0.96313 -0.829871,1.92698 -1.255348,2.89146 -2.210567,4.67726 -5.115616,8.95036 -9.038602,12.01115 z m 65.027168,-86.8895 c -10.44804,-12.88072 -18.33629,-28.32966 -30.45635,-39.77209 -6.97898,-6.58984 -15.930507,-11.71032 -25.441112,-14.16493 17.614502,2.19273 31.535392,14.78179 42.639132,27.78948 10.37782,12.15637 19.06118,25.38376 28.19076,38.45577 2.43722,3.48955 5.05461,7.00256 7.88703,10.32947 -8.41556,-6.5314 -15.94886,-14.16878 -22.81946,-22.6377 z m -43.03863,-29.57331 c -0.43546,-0.29582 -0.87195,-0.58732 -1.32485,-0.8574 -3.649267,-2.76944 -7.670187,-5.20121 -11.768339,-7.27053 -4.815547,-3.18445 -10.193274,-5.80278 -15.830682,-6.65046 -0.379439,-0.12255 -0.760595,-0.24765 -1.140416,-0.35869 7.750581,1.19144 16.313162,5.18361 22.24,8.89179 1.93398,1.30353 3.82269,2.68365 5.65339,4.15571 0.752567,0.66732 1.457217,1.3831 2.170917,2.08951 z m -26.054638,-19.3119 c -3.467771,-0.55958 -7.141292,-0.60778 -10.572249,0.0465 1.31763,-0.87891 2.670635,-1.68316 4.084547,-2.34497 10.608823,-2.42575 23.803323,1.42459 32.92145,6.98244 11.99868,7.3148 19.50239,19.14789 27.3446,30.41105 8.0281,11.52857 16.8819,22.89587 27.20211,32.51594 -17.21402,-14.05906 -31.61696,-32.98366 -46.66178,-47.76986 -9.50547,-9.33932 -20.85908,-17.6662 -34.318678,-19.8411 z m -0.492771,-19.33306 c 8.204756,-4.31044 17.678402,-5.25123 26.689569,-6.70722 17.43531,-2.82138 37.58552,-16.3441 53.81302,-4.10657 14.57386,10.98991 22.05908,33.04331 27.45414,49.81559 3.14586,9.77685 5.47226,19.82641 7.01586,29.98074 1.61399,10.60145 4.48447,24.57656 -0.57408,34.59425 -17.41278,-9.87511 -26.57189,-25.99937 -37.93896,-41.86149 -11.2545,-15.70537 -23.8958,-32.63316 -40.5722,-42.95608 -12.414307,-7.68623 -28.470742,-11.5866 -42.39846,-5.63223 -0.956843,0.41038 -1.962001,0.94018 -2.981967,1.52383 -2.354136,0.9019 -4.548708,2.11351 -6.447854,3.632 3.221079,-7.63933 8.402153,-14.32426 15.940932,-18.28282 z M 272.43888,493.369 c 11.66422,19.24228 0.66779,37.90263 -13.60377,51.58887 -0.3188,0.19872 -0.63527,0.40712 -0.93701,0.62124 0.18412,-1.2176 0.3182,-2.43763 0.31254,-3.66718 4.17813,-28.96407 -10.80178,-59.18669 -33.9853,-78.19206 19.46861,3.95895 37.35544,11.74195 48.21354,29.64913 z m -3.25683,-19.3604 0.17696,-0.0714 c 13.16357,1.13003 27.11588,3.59112 35.78688,13.40591 8.23928,9.32505 0.56316,20.99469 -6.97288,27.89387 -3.41074,3.12461 -7.1028,5.21007 -10.99588,6.96701 -0.82065,0.13953 -1.6318,0.29731 -2.46659,0.36939 l -0.2766,-0.50645 c -2.76203,-2.62312 -0.94226,-10.03999 -1.3017,-13.64541 -0.29071,-2.90434 -1.07248,-5.80574 -2.11006,-8.56259 -0.39648,-1.25379 -0.87143,-2.50519 -1.43138,-3.75566 -2.34756,-5.2286 -5.70051,-10.16348 -9.7432,-14.61451 -1.52242,-2.51418 -2.283,-5.09217 -0.66552,-7.48034 z m 43.73683,17.35215 c -2.54493,-8.40686 -11.69482,-13.028 -19.19874,-16.1512 -6.72902,-2.79901 -14.33931,-4.88134 -21.94755,-5.50125 -0.30901,-0.40627 -0.79002,-0.67372 -1.34297,-0.55227 -0.55025,0.11978 -1.02409,0.27563 -1.53071,0.41471 -4.00453,-0.12273 -7.98027,0.1439 -11.79246,1.01907 -11.05158,-7.27833 -24.20671,-11.32804 -36.71764,-9.85929 -17.24796,-12.73789 -38.41412,-19.35478 -59.45737,-15.23503 -2.01019,-1.77495 -4.14174,-3.36266 -6.42384,-4.69658 -8.2676,-4.82884 -17.11849,-4.45848 -26.05425,-1.8759 -11.00645,3.18133 -21.28151,6.57821 -32.654537,8.41644 -19.35171,3.13053 -38.091452,11.31603 -40.87985,32.76115 -0.331779,0.55087 -0.631298,1.12069 -0.897392,1.71431 -2.720043,3.62404 -4.489487,7.68411 -4.364333,11.74615 -9.094486,3.88856 -16.160521,11.97153 -20.097048,21.00533 -0.818286,1.87701 -1.743827,4.45326 -2.456827,7.23922 -1.906045,3.9871 -2.903032,8.32267 -5.061429,12.21227 -0.704092,1.26648 -1.647556,2.36972 -2.636158,3.4304 -5.966373,3.38397 -11.2533358,9.37979 -14.8664908,13.82087 -7.3918443,9.08205 -20.8808342,24.75795 -17.8348592,37.9373 3.8250849,25.12708 36.722246,33.23128 58.188025,32.70178 9.052651,-0.2227 18.633366,-2.25682 27.626018,-0.9078 0.5357,0.0812 1.040803,0.22512 1.548167,0.35928 0.67756,2.18525 2.023567,4.35366 3.080779,5.71274 3.973937,5.12246 10.305629,7.76739 16.520978,8.8203 5.61588,0.95034 14.036397,1.16065 21.517717,-0.56559 3.15566,-0.34691 6.24006,-1.06791 9.04968,-2.31319 1.92133,0.0448 3.86051,-0.0367 5.79588,-0.12152 12.42059,2.17894 25.88401,-1.8735 38.57013,-7.79986 11.01215,-3.89715 21.52656,-9.11526 31.42508,-15.40203 8.50408,-5.40276 16.47663,-11.62546 23.9999,-18.35116 10.09313,-7.93501 19.45879,-17.22813 25.77505,-27.82699 2.00571,-2.86635 3.83359,-5.87481 5.2634,-8.9848 0.17006,-0.21947 0.33582,-0.43994 0.51142,-0.65354 1.10273,-1.35502 2.25108,-2.66963 3.35113,-4.02298 0.70255,-0.55877 1.36786,-1.1743 2.05255,-1.76474 4.22146,-2.66837 7.87425,-6.43113 10.91623,-10.61292 1.79334,-2.0105 3.46731,-4.48409 5.261,-6.6343 1.13063,-0.92231 2.31171,-1.77563 3.50346,-2.60585 3.06282,-0.33184 6.32598,-1.27025 9.56981,-2.67833 8.11224,-2.00604 18.44486,-8.23789 19.84069,-16.89888 3.21999,-5.4031 4.63678,-11.38964 2.84685,-17.29314"
       style="fill:#583620;fill-opacity:1;fill-rule:nonzero;stroke:none"
       id="path43432"
       inkscape:connector-curvature="0" />
    <path
       d="m 489.60393,698.72646 c 3.3304,17.5694 -1.4799,38.3196 -11.4354,53.2439 -9.855,14.7724 -31.0138,21.9957 -47.6524,25.6185 -8.2656,1.7992 -17.8817,3.2456 -27.3976,3.1809 -5.8617,-2.7969 -12.8817,-2.5335 -19.1787,-4.1094 -4.5537,-1.1384 -8.7903,-2.913 -12.7681,-5.1921 -0.3526,-0.2768 -0.7276,-0.5223 -1.0714,-0.8125 -10.8662,-9.2143 -18.1362,-21.5515 -22.2413,-34.9445 -0.3437,-1.2679 -0.6896,-2.538 -1.0155,-3.8215 -0.6295,-2.4799 -1.1161,-4.9956 -1.6205,-7.5068 -0.159,-0.9196 -0.3661,-1.8326 -0.4979,-2.7567 1.625,-0.2589 3.1318,-0.9889 4.8551,-1.038 l 0.5377,0.031 c 0.3373,2.2032 0.864,4.3662 1.7725,6.4555 l 0.1919,-0.058 c -0.6696,-2.105 -1.1697,-4.2255 -1.5245,-6.3729 0.8726,0.047 1.7455,0.1631 2.6183,0.3527 0.2723,4.73 1.2835,9.2724 3.0447,13.7256 l 0.056,-0.016 c -1.6272,-4.4241 -2.5022,-8.9867 -2.8393,-13.6586 0.6854,0.1562 1.3617,0.3393 2.0336,0.5424 0.2009,1.7121 0.4977,3.3996 0.8728,5.0916 0.046,0.2053 0.3772,0.1496 0.366,-0.058 -0.091,-1.6206 -0.2744,-3.2211 -0.5134,-4.817 0.625,0.2008 1.2456,0.4084 1.8483,0.6116 l 0.1464,0.058 c 0.7901,7.7813 3.7455,14.739 8.8885,20.8127 l 0.045,-0.038 c -4.7567,-6.0626 -7.6295,-13.0894 -8.6207,-20.6542 2.1608,0.7544 4.2546,1.6518 6.1385,2.9687 1.067,0.7456 1.9532,1.6518 2.9175,2.4532 4.7947,9.9041 15.23,17.0895 26.3061,20.9243 0.4821,0.9732 11.672,2.9822 15.9266,3.1786 22.6094,1.0357 43.5093,-13.3997 51.4782,-34.4758 2.5244,-6.6786 3.7164,-13.5559 3.7143,-20.3016 0.7119,-4.0558 0.073,-8.1987 -1.3953,-12.2411 -2.9843,-12.68548 -10.6384,-24.02038 -22.6832,-31.36648 -19.5336,-11.913 -43.4424,-17.1073 -66.2975,-15.2724 -12.2054,0.051 -24.1677,2.7254 -34.7459,9.7858 -2.2255,1.4844 -4.3551,3.1295 -6.4197,4.8773 -1.4666,1.2076 -2.8974,2.4866 -4.2723,3.8817 l -0.2589,0.2835 c -11.0851,10.9398 -19.5785,25.26808 -25.3822,39.12988 -0.098,0.2321 -0.1068,0.4464 -0.084,0.6473 -8.7277,2 -17.3349,4.4353 -25.4333,7.8371 15.3642,-64.26398 89.7979,-101.19518 152.1713,-82.82668 33.8576,9.971 53.3443,44.6076 59.4203,76.64588 z m -120.6976,134.1711 c -17.0874,6.66302 -38.6725,10.06702 -54.427,-1.2612 -23.8039,-17.1185 -39.3598,-43.4848 -41.9179,-71.8691 -0.2812,-7.4576 0.1807,-15.0381 1.1808,-22.7882 0.3416,-0.094 0.6898,-0.1986 1.0335,-0.2991 -0.1696,1.5402 -0.2299,3.0782 -0.082,4.3885 0.029,0.2522 0.4464,0.3437 0.4821,0.049 0.1589,-1.3684 0.1535,-2.7501 0.2723,-4.1228 l 0.059,-0.5246 c 0.3682,-0.1093 0.7366,-0.2143 1.1071,-0.3304 -0.018,0.7947 0,1.5871 0,2.3617 0,0.3281 0.4867,0.3705 0.567,0.06 0.2388,-0.9219 0.4799,-1.8661 0.692,-2.8148 1.2209,-0.3861 2.4486,-0.7679 3.6853,-1.1205 -1.4733,9.1653 -0.9465,18.7904 1.1719,27.7614 l 0.1919,-0.058 c -1.7924,-9.5536 -1.7365,-18.4421 -0.5669,-27.9132 1.6807,-0.4509 3.3661,-0.8148 5.0469,-0.9799 -0.6094,5.2076 -0.091,10.8885 0.056,15.9376 l 0.2009,-0.01 c 0.067,-5.1764 0.8239,-10.7077 0.6384,-15.9689 1.2881,-0.069 2.5671,0.018 3.8372,0.2523 -1.3326,9.2523 0.2611,19.2033 2.3906,28.0382 l 0.1091,-0.031 c -1.9842,-9.576 -1.4419,-18.364 -0.9999,-27.6744 0.5535,0.1696 1.1027,0.4107 1.6517,0.6607 -1.9709,22.3752 5.1676,51.6189 22.9491,64.3802 17.5224,12.5782 48.9267,1.7232 60.3867,-16.0716 5.3526,-0.5759 11.0983,0.7433 16.2167,2.0893 3.335,0.8772 5.7746,2.1116 7.9219,3.6897 -0.4821,0.4241 -0.9598,0.8527 -1.4887,1.2166 -1.451,0.9977 -2.9778,1.8928 -4.6096,2.5558 l 0.077,0.2478 c 2.2053,-0.6786 4.913,-1.7389 6.8015,-3.4242 0.6763,0.5402 1.3324,1.1496 1.9888,1.7813 0.1535,0.2924 0.2836,0.596 0.4329,0.8929 -7.9241,16.9934 -18.9466,33.8351 -37.0494,40.8955 z m -26.8508,-92.251 c 2.7969,7.9777 6.8705,15.5604 12.3348,21.9868 5.9488,6.9956 13.8038,12.4644 22.4646,16.1029 -14.4377,16.047 -41.8686,32.7392 -60.6278,13.7524 -14.9311,-15.114 -17.998,-38.1612 -17.7614,-58.773 l 0,-0.1652 c 0.018,-1.6027 0.053,-3.1942 0.1068,-4.7634 4.9285,-1.6362 28.4601,-6.3617 39.4714,-8.8416 -0.7276,4.0268 0.5156,8.6496 1.5848,12.6028 0.6005,2.6206 1.3549,5.4978 2.4243,8.0983 z m 50.2817,3.9197 c -9.8817,-3.4621 -18.1877,-9.8952 -22.3773,-19.2435 8.5045,3.8862 13.5269,10.4978 20.3305,16.6095 0.6674,0.8839 1.3459,1.7656 2.0468,2.634 z m -37.5897,-85.81118 c -1.9843,3.0179 -3.7165,6.163 -5.1697,8.8862 -1.8617,3.4934 -3.529,7.0514 -4.7834,10.8082 -1.1385,3.41518 -3.1653,7.34158 -3.2233,10.94428 -4.2188,0.8549 -8.4086,1.7389 -12.5046,2.5268 -6.268,1.2076 -12.701,2.3817 -19.1319,3.7099 5.3014,-11.5135 11.0223,-23.07168 19.4064,-32.67668 9.9488,-11.3975 22.9824,-16.9957 37.5562,-19.2882 -4.8326,4.0983 -8.8616,9.3238 -12.1497,15.0895 z m 55.4985,47.41568 c -9.757,-10.6073 -20.5249,-18.9266 -35.3197,-20.1275 -0.328,-0.027 -0.6584,-0.022 -0.9888,-0.027 0.4664,-3.558 2.4866,-6.12498 3.6787,-9.60048 0.3392,-0.9889 0.7053,-1.9956 1.0735,-3.0134 0.9711,-1.9599 1.9444,-3.9577 2.6051,-6.0224 0.2298,-0.3884 0.4509,-0.7835 0.6807,-1.1719 4.067,-6.9108 8.4622,-16.0761 14.7748,-21.3417 14.4911,2.5781 30.7256,6.721 41.8575,15.0939 9.5559,7.1875 18.8908,18.1006 21.8887,30.13198 2.2165,18.8819 -6.5068,39.6566 -22.4288,50.1545 -2.6006,1.7165 -5.4935,3.1072 -8.5471,4.23 -0.9285,-15.0359 -9.2433,-27.3999 -19.2746,-38.3062 z m -45.2327,-53.43358 c 1.9777,-3.4978 4.6361,-6.1206 7.7567,-8.5269 0.317,-0.076 0.6407,-0.1563 1.0291,-0.2433 l 0.2232,-0.038 c -4.5938,4.0469 -8.0961,9.259 -10.8037,14.7256 l 0.1269,0.069 c 3.1762,-5.8773 7.5447,-10.547 12.2456,-15.0604 0.8236,-0.1497 1.6474,-0.3282 2.4754,-0.4197 -1.6786,1.4085 -3.2254,2.9934 -4.6876,4.605 l 0.085,0.078 c 1.6497,-1.6407 3.422,-3.1451 5.134,-4.7143 0.614,-0.06 1.239,-0.049 1.8572,-0.074 -2.3995,2.0803 -4.2031,4.971 -5.5983,7.7478 -0.1091,0.2143 0.2077,0.3839 0.3282,0.1763 1.6987,-2.9353 3.9197,-5.3238 5.9822,-7.951 0.4643,-0.01 0.9219,-0.071 1.3884,-0.053 2.2879,0.085 4.6852,0.9152 7.0448,1.4174 -4.6564,4.5536 -8.574,10.0202 -11.7189,15.6408 l 0.2544,0.1362 c 3.6385,-5.5625 7.768,-10.5938 11.9799,-15.6653 0.4732,0.089 0.9443,0.1562 1.4132,0.2031 -4.8796,5.4621 -8.5047,12.6743 -11.8954,18.7301 -2.4977,4.4554 -6.5402,10.8238 -7.9933,16.81938 -0.8616,1.8282 -1.558,3.7054 -1.9955,5.6161 -0.8952,0.011 -1.7902,0.011 -2.6876,0.036 -0.442,-1.6875 1.0692,-4.9933 1.4063,-6.20758 0.6384,-2.3014 1.2477,-4.6362 1.6608,-6.9889 0.046,-0.2791 -0.3239,-0.355 -0.4197,-0.1005 -1.1786,3.1406 -1.9979,6.4174 -2.8639,9.65408 -0.3816,1.4219 -0.7388,2.5603 -0.07,3.6473 -6.7144,0.2054 -13.4868,1.1429 -20.1943,2.4152 3.1294,-11.96438 7.395,-23.93328 14.6385,-33.68558 0.7856,-0.933 1.5446,-1.8839 2.2634,-2.8572 2.3057,-2.7232 4.9643,-5.1652 7.8594,-7.413 0.3035,-0.018 0.6205,-0.06 0.9398,-0.125 -3.0827,2.1027 -5.5135,5.076 -7.2412,8.3639 l 0.077,0.043 z m -103.5948,65.74398 c 3.9039,-12.7703 71.9091,-25.7548 101.0121,-28.4736 15.5895,-1.4576 28.3374,2.3572 39.737,13.2837 11.8618,11.3706 23.036,25.277 23.728,42.3196 -3.4465,0.9665 -7.0603,1.5916 -10.7345,1.8728 -0.5514,-11.1854 -7.6451,-21.8998 -14.384,-30.3664 l -0.1714,0.1072 c 6.6897,9.4465 9.4063,19.8908 13.8951,30.2882 -5.8884,0.3817 -11.9064,-0.1116 -17.6073,-1.5446 -1.8348,-9.8082 -7.6251,-15.7814 -16.7569,-21.8574 -14.5381,-8.5782 -28.2323,-9.6653 -38.8396,-8.8505 -0.3505,-0.1674 -0.7411,-0.1652 -1.0982,0.091 -7.0359,0.6384 -12.6296,2.0558 -16.0225,2.5491 -7.8215,1.1406 -17.8573,4.1072 -25.3976,6.6072 -7.5336,2.5 -15.4243,6.1586 -23.478,6.259 -6.8639,0.085 -16.7323,-2.9665 -13.8818,-12.2858 z m 226.8438,-42.19688 c -5.9866,-17.5225 -18.5246,-33.7861 -32.9712,-45.7929 -28.4938,-23.6833 -75.4719,-20.2926 -108.1151,-7.8818 -36.6766,13.9443 -65.3466,43.7125 -73.4985,82.48078 -11.2167,5.2523 -18.065,9.3885 -15.2658,19.2011 1.8348,6.4286 7.3506,9.0336 13.431,9.6764 -0.5336,2.5045 -0.9687,5.0224 -1.3081,7.5492 -0.088,0.6273 -0.1321,1.2567 -0.2053,1.8862 -0.2143,1.8639 -0.4085,3.7255 -0.5157,5.5938 -0.068,1.1228 -0.077,2.2456 -0.1032,3.3706 -0.031,1.3817 -0.067,2.7612 -0.042,4.1407 0.027,1.5803 0.1232,3.1562 0.2232,4.7344 0.056,0.7902 0.095,1.5803 0.1696,2.3683 2.5425,28.8619 17.5137,56.6725 42.6011,71.7396 1.0491,0.7098 2.0825,1.4777 3.1495,2.1183 3.1696,1.9018 6.5536,3.28132 10.067,4.25012 12.7502,4.2612 27.6366,2.0402 40.813,-3.00002 1.2142,-0.4085 2.4152,-0.8304 3.5871,-1.2702 4.1093,-1.5446 7.942,-3.6362 11.529,-6.1139 0.3662,-0.2209 0.7479,-0.4352 1.1051,-0.6607 17.6005,-11.0046 30.1432,-27.9735 36.6811,-47.5451 14.7144,-1.5335 29.3598,-5.8863 42.1745,-12.9131 14.9936,-8.2211 25.487,-21.2882 30.1053,-37.4781 5.2903,-18.5337 2.462,-38.6745 -3.6139,-56.45368"
       style="fill:#583620;fill-opacity:1;fill-rule:nonzero;stroke:none"
       id="path41638"
       inkscape:connector-curvature="0" />
    <text
       xml:space="preserve"
       style="font-style:normal;font-weight:normal;font-size:40px;line-height:125%;font-family:Sans;letter-spacing:0px;word-spacing:0px;fill:#f48161;fill-opacity:1;stroke:none;stroke-width:1px;stroke-linecap:butt;stroke-linejoin:miter;stroke-opacity:1"
       x="114.47368"
       y="686.57263"
       id="text4792"
       sodipodi:linespacing="125%"><tspan
         sodipodi:role="line"
         id="tspan4794"
         x="114.47368"
         y="686.57263"
         style="font-style:normal;font-variant:normal;font-weight:normal;font-stretch:normal;font-size:180px;font-family:'Lobster Two';-inkscape-font-specification:'Lobster Two';fill:#f48161;fill-opacity:1">CSB</tspan></text>
  </g>
</svg>
